<?xml version="1.0" standalone="no"?>
<!DOCTYPE svg PUBLIC "-//W3C//DTD SVG 20010904//EN"
 "http://www.w3.org/TR/2001/REC-SVG-20010904/DTD/svg10.dtd">
<svg version="1.0" xmlns="http://www.w3.org/2000/svg"
 width="16.000000pt" height="16.000000pt" viewBox="0 0 16.000000 16.000000"
 preserveAspectRatio="xMidYMid meet">
<metadata>
Created by potrace 1.11, written by Peter Selinger 2001-2013
</metadata>
<g transform="translate(0.000000,16.000000) scale(0.003200,-0.003200)"
fill="#000000" stroke="none">
<path d="M2299 4995 c-2 -1 -33 -6 -68 -9 -785 -78 -1500 -546 -1903 -1246
-127 -221 -247 -540 -282 -750 -3 -19 -10 -62 -16 -95 -20 -116 -25 -202 -25
-405 1 -268 12 -369 71 -605 78 -313 220 -611 416 -875 283 -381 662 -670
1108 -845 52 -20 102 -39 110 -41 8 -2 63 -17 122 -34 58 -16 121 -32 140 -35
18 -3 53 -10 78 -15 117 -27 272 -38 480 -35 201 3 279 8 340 20 14 2 41 7 60
10 456 75 919 305 1269 630 441 410 709 937 785 1543 14 107 15 516 2 592 -4
19 -11 62 -16 95 -16 99 -20 115 -50 235 -139 551 -474 1043 -945 1391 -33 24
-67 49 -77 54 -9 6 -54 33 -100 62 -200 123 -433 223 -663 283 -110 28 -125
31 -245 50 -36 6 -81 13 -100 16 -39 6 -486 15 -491 9z m491 -90 c45 -7 199
-33 226 -39 110 -23 313 -87 400 -127 24 -10 46 -19 49 -19 3 0 56 -25 117
-56 332 -166 625 -411 850 -709 104 -139 170 -247 249 -410 60 -124 150 -365
162 -435 3 -14 10 -45 17 -70 7 -25 14 -57 16 -73 2 -15 8 -54 14 -85 20 -108
25 -188 24 -407 -1 -236 -17 -371 -69 -577 -75 -294 -221 -598 -405 -843 -97
-128 -121 -155 -235 -270 -136 -136 -291 -258 -450 -355 -71 -44 -280 -151
-299 -154 -6 -1 -27 -10 -46 -19 -121 -58 -449 -142 -635 -163 -158 -18 -520
-9 -655 15 -30 6 -70 13 -88 16 -18 3 -61 12 -95 21 -34 8 -72 17 -84 19 -32
7 -220 73 -285 101 -439 184 -815 495 -1083 894 -77 115 -147 243 -202 370
-37 86 -89 222 -99 260 -2 8 -8 33 -14 55 -6 22 -12 47 -14 55 -2 8 -9 33 -14
55 -11 41 -36 179 -49 270 -9 68 -10 454 -1 535 49 434 224 871 484 1207 122
158 275 315 408 418 21 17 44 35 50 41 38 36 227 158 331 212 273 142 610 246
870 268 44 4 82 8 84 10 6 5 431 -4 471 -11z"/>
<path d="M994 2976 c-9 -24 2 -33 51 -40 57 -9 82 -35 87 -91 1 -24 3 -187 2
-363 -1 -233 -4 -329 -13 -351 -13 -30 -43 -46 -101 -53 -17 -2 -25 -9 -25
-23 0 -19 8 -20 172 -20 129 -1 173 2 177 11 7 18 -13 31 -57 39 -43 8 -73 35
-79 70 -10 49 -6 596 3 593 6 -2 55 -107 110 -233 55 -127 106 -243 114 -260
7 -16 30 -68 50 -115 57 -130 73 -139 101 -62 41 113 103 269 118 297 9 17 16
37 16 46 0 8 4 19 8 25 5 5 37 75 72 157 34 81 66 147 71 147 5 0 9 -136 9
-304 l0 -303 -24 -26 c-14 -15 -40 -28 -62 -32 -59 -10 -66 -13 -62 -32 3 -17
22 -18 228 -18 218 0 225 1 225 20 0 16 -10 22 -54 30 -40 7 -59 17 -75 38
-20 27 -20 39 -20 386 -1 416 -4 402 89 421 49 10 55 14 55 36 l0 25 -132 -7
c-73 -3 -139 -6 -146 -6 -17 -2 -16 1 -170 -366 -70 -167 -131 -304 -136 -304
-8 0 -69 137 -258 584 -18 43 -40 80 -48 84 -8 3 -77 8 -152 11 -118 4 -139 3
-144 -11z"/>
<path d="M2266 2974 c-7 -19 8 -32 47 -39 51 -10 87 -42 94 -85 3 -19 6 -182
6 -361 0 -357 -3 -384 -52 -395 -88 -20 -101 -25 -101 -43 0 -17 20 -18 376
-16 206 2 379 6 384 11 4 5 10 47 14 94 3 47 8 94 10 106 6 28 -7 47 -30 42
-11 -2 -21 -15 -25 -33 -23 -110 -71 -147 -198 -153 -101 -5 -158 8 -192 44
l-24 26 -3 345 c-2 397 -3 392 77 413 25 7 52 14 59 16 8 2 12 12 10 21 -3 17
-22 18 -225 18 -153 0 -224 -3 -227 -11z"/>
<path d="M3123 2974 c-8 -21 4 -31 44 -39 101 -19 102 -22 103 -434 0 -198 -4
-349 -9 -364 -11 -29 -34 -44 -82 -52 -39 -7 -60 -22 -53 -38 3 -9 66 -13 234
-13 190 -1 230 2 235 13 8 23 -1 30 -52 37 -98 13 -113 44 -113 225 0 128 2
141 19 151 27 14 62 13 102 -4 64 -27 85 -66 132 -244 38 -144 55 -173 114
-193 86 -28 191 22 208 100 13 60 -22 70 -54 16 -21 -37 -45 -44 -73 -22 -10
7 -28 56 -42 114 -33 138 -72 193 -182 259 -17 10 -11 14 39 30 63 20 129 74
149 121 6 16 12 58 14 94 5 117 -54 200 -171 240 -56 19 -555 21 -562 3z m502
-70 c54 -25 69 -62 69 -174 1 -107 -14 -144 -67 -175 -35 -21 -164 -30 -184
-13 -18 15 -19 351 0 366 32 26 123 24 182 -4z"/>
</g>
</svg>
