<?xml version="1.0" standalone="no"?>
<!DOCTYPE svg PUBLIC "-//W3C//DTD SVG 20010904//EN"
 "http://www.w3.org/TR/2001/REC-SVG-20010904/DTD/svg10.dtd">
<svg version="1.0" xmlns="http://www.w3.org/2000/svg"
 width="700.000000pt" height="700.000000pt" viewBox="0 0 700.000000 700.000000"
 preserveAspectRatio="xMidYMid meet">
<metadata>
Created by potrace 1.11, written by Peter Selinger 2001-2013
</metadata>
<g transform="translate(0.000000,700.000000) scale(0.100000,-0.100000)"
fill="#000000" stroke="none">
<path d="M1366 6555 c-4 -17 -9 -43 -12 -60 -3 -16 -7 -34 -8 -40 -14 -63 -75
-356 -80 -385 -2 -14 -14 -70 -26 -125 -27 -122 -18 -82 -79 -380 -28 -137
-53 -259 -55 -270 -3 -11 -19 -87 -36 -170 -18 -82 -34 -161 -36 -175 -3 -14
-11 -53 -19 -88 -8 -34 -17 -77 -20 -95 -3 -17 -23 -115 -45 -217 -21 -102
-62 -293 -89 -425 -27 -132 -52 -251 -55 -265 -3 -14 -8 -38 -11 -55 -8 -39
-36 -176 -40 -195 -5 -21 -95 -450 -101 -480 -3 -14 -14 -68 -25 -120 -11 -52
-22 -106 -24 -120 -2 -14 -18 -90 -35 -170 -26 -122 -129 -614 -144 -691 -2
-13 -30 -145 -61 -294 -31 -148 -59 -281 -61 -295 -3 -13 -12 -56 -20 -95 -8
-38 -40 -189 -70 -335 -30 -146 -57 -274 -59 -285 -3 -11 -7 -33 -11 -50 -3
-16 -8 -38 -10 -48 -5 -16 6 -17 172 -15 l178 3 17 80 c10 44 21 98 24 120 4
22 8 42 10 45 2 3 6 21 9 40 3 19 33 166 66 325 56 265 94 450 106 515 3 14
10 45 15 70 6 25 13 55 15 68 2 12 6 32 8 45 2 12 10 45 16 72 7 28 14 64 17
80 2 17 13 68 23 115 10 47 22 101 25 120 3 19 15 73 25 120 10 47 22 101 25
120 3 19 12 64 20 100 8 36 17 76 19 90 8 44 24 122 45 220 11 52 22 106 25
120 3 14 16 81 31 150 14 69 27 134 29 145 3 11 25 119 50 240 26 121 48 229
50 240 3 11 12 53 20 92 9 40 18 85 21 100 2 16 14 73 25 128 12 55 24 111 26
125 3 14 16 79 30 145 14 66 43 208 65 315 22 107 42 204 45 215 3 11 9 43 14
70 18 100 70 338 74 343 9 8 24 -8 30 -34 4 -14 15 -45 26 -68 10 -22 46 -111
80 -196 34 -85 68 -168 76 -184 8 -16 14 -34 14 -40 0 -6 6 -22 13 -36 7 -14
23 -52 36 -85 13 -33 29 -73 36 -90 7 -16 46 -111 85 -210 40 -99 78 -193 86
-210 7 -16 40 -97 73 -180 32 -82 107 -269 166 -415 60 -146 116 -285 125
-310 10 -25 72 -178 138 -340 137 -338 400 -988 642 -1590 411 -1019 394 -978
402 -964 3 5 62 149 131 319 304 750 618 1524 733 1810 69 171 132 324 139
340 7 17 31 75 53 130 74 185 274 680 287 710 7 17 55 134 105 260 51 127 98
244 106 260 7 17 60 149 119 295 58 146 110 274 115 285 5 11 35 83 65 160 31
77 62 154 69 170 7 17 27 66 45 110 34 87 47 112 55 105 3 -4 65 -282 79 -360
4 -21 88 -433 101 -495 15 -71 96 -457 100 -476 16 -79 30 -149 75 -367 28
-133 53 -255 56 -270 2 -15 18 -92 35 -172 44 -207 61 -291 67 -320 2 -14 22
-110 44 -215 22 -104 51 -246 65 -315 14 -69 27 -132 29 -140 17 -81 69 -331
81 -390 8 -41 37 -181 64 -310 27 -129 51 -246 54 -260 2 -14 14 -70 25 -125
12 -55 33 -156 47 -225 14 -69 28 -134 30 -145 3 -11 12 -59 22 -107 l16 -88
179 0 c165 0 178 1 173 18 -3 9 -17 73 -31 142 -15 69 -28 134 -31 145 -4 23
-32 161 -38 190 -2 11 -7 31 -10 45 -3 14 -8 36 -10 50 -3 14 -10 50 -16 80
-6 30 -14 66 -16 80 -3 13 -12 56 -20 95 -9 38 -18 81 -20 94 -3 13 -18 87
-35 165 -31 145 -77 366 -83 401 -2 11 -18 85 -34 165 -17 80 -33 156 -36 170
-2 14 -21 104 -41 200 -20 96 -39 184 -41 195 -2 11 -18 88 -35 170 -17 83
-33 159 -35 170 -2 11 -6 29 -8 40 -3 11 -14 63 -25 115 -10 52 -29 140 -40
195 -12 55 -24 111 -26 125 -3 14 -16 79 -30 145 -15 66 -30 143 -36 170 -5
28 -11 59 -13 70 -17 77 -96 457 -100 476 -5 28 -56 271 -92 440 -13 63 -26
124 -28 135 -21 104 -63 308 -92 442 -19 91 -37 178 -40 195 -2 17 -6 33 -8
36 -2 3 -7 23 -10 43 -3 21 -10 57 -15 80 -6 24 -12 54 -15 68 -23 120 -113
551 -122 586 -9 34 -6 39 -98 -191 -42 -104 -81 -199 -86 -210 -5 -11 -19 -45
-31 -75 -12 -30 -28 -69 -35 -87 -8 -17 -14 -34 -14 -38 0 -3 -8 -25 -19 -48
-10 -23 -36 -85 -56 -137 -21 -52 -41 -102 -46 -110 -4 -8 -29 -69 -55 -135
-26 -66 -77 -194 -114 -285 -37 -91 -116 -284 -175 -430 -185 -457 -196 -484
-211 -517 -8 -17 -14 -34 -14 -38 0 -4 -7 -21 -15 -38 -8 -18 -48 -115 -89
-217 -40 -102 -120 -297 -175 -435 -56 -137 -125 -306 -152 -375 -28 -69 -57
-138 -64 -155 -12 -28 -52 -127 -265 -655 -50 -124 -95 -234 -100 -245 -5 -11
-63 -155 -130 -320 -66 -165 -137 -340 -157 -389 l-37 -89 -14 34 c-29 67 -94
227 -439 1084 -69 171 -171 425 -228 565 -240 595 -321 794 -381 945 -36 88
-69 169 -74 180 -5 11 -89 218 -186 460 -192 479 -220 550 -234 580 -5 11 -27
67 -50 125 -23 58 -47 119 -55 135 -7 17 -63 156 -125 310 -62 154 -146 363
-187 465 -42 102 -92 228 -113 280 -34 87 -38 92 -44 65z"/>
</g>
</svg>
